# xmcd
#
# Track frame offsets: 
#        150
#        31434
#        46645
#        64778
#        76182
#        112102
#        126899
#        138480
#        154739
#
# Disc length: 2183 seconds
#
# Revision: 0
# Processed by: cddbd v1.5.2PL0 Copyright (c) Steve Scherf et al.
# Submitted via: ExactAudioCopy v0.99pb4
#
DISCID=72088509
DTITLE=Ike and Tina Turner Revue - Live
DYEAR=1964
DGENRE=Soul
TTITLE0=Please, Please, Please
TTITLE1=Feel So Good
TTITLE2=The Love Of My Man
TTITLE3=Think
TTITLE4=Drown In My Own Tears
TTITLE5=I Love The Way You Love
TTITLE6=Your Precious Love
TTITLE7=All In My Mind
TTITLE8=I Can't Believe What You Say
EXTD=
EXTT0=
EXTT1=
EXTT2=
EXTT3=
EXTT4=
EXTT5=
EXTT6=
EXTT7=
EXTT8=
PLAYORDER=
